C:/Users/Samuel/Documents/FFMPEG/bin/ffmpeg.exe -hide_banner -y -y -r 15 -start_number 0 -start_number_range 1 -i C:/Users/Samuel/Documents/GitHub/Thursday-Morning-Graduatin/assets/shared/images/notes/NoteSplosh/GotShot/gorShot1%04d.png -i C:/Users/Samuel/Documents/GitHub/Thursday-Morning-Graduatin/assets/shared/images/notes/NoteSplosh/GotShot/KritaTempPalettegen_%06d.png -lavfi [0:v][1:v]paletteuse=dither=sierra2_4a:diff_mode=none -f gif -loop 0 -gifflags +transdiff C:/Users/Samuel/Documents/GitHub/Thursday-Morning-Graduatin/assets/shared/images/notes/NoteSplosh/GotShot/BulletNote-Animated.gif
=====================================================
Input #0, image2, from 'C:/Users/Samuel/Documents/GitHub/Thursday-Morning-Graduatin/assets/shared/images/notes/NoteSplosh/GotShot/gorShot1%04d.png':
  Duration: 00:00:00.44, start: 0.000000, bitrate: N/A
  Stream #0:0: Video: png, rgba(pc), 260x298 [SAR 2834:2834 DAR 130:149], 25 fps, 25 tbr, 25 tbn
Input #1, image2, from 'C:/Users/Samuel/Documents/GitHub/Thursday-Morning-Graduatin/assets/shared/images/notes/NoteSplosh/GotShot/KritaTempPalettegen_%06d.png':
  Duration: 00:00:00.04, start: 0.000000, bitrate: N/A
  Stream #1:0: Video: png, rgba(pc), 16x16 [SAR 1:1 DAR 1:1], 25 fps, 25 tbr, 25 tbn
Stream mapping:
  Stream #0:0 (png) -> paletteuse
  Stream #1:0 (png) -> paletteuse
  paletteuse:default -> Stream #0:0 (gif)
Press [q] to stop, [?] for help
[image2 @ 0000023caa0fbf80] Thread message queue blocking; consider raising the thread_queue_size option (current value: 8)
Output #0, gif, to 'C:/Users/Samuel/Documents/GitHub/Thursday-Morning-Graduatin/assets/shared/images/notes/NoteSplosh/GotShot/BulletNote-Animated.gif':
  Metadata:
    encoder         : Lavf60.3.100
  Stream #0:0: Video: gif, pal8(pc, gbr/unknown/unknown, progressive), 260x298 [SAR 1:1 DAR 130:149], q=2-31, 200 kb/s, 15 fps, 100 tbn
    Metadata:
      encoder         : Lavc60.3.100 gif
frame=    0 fps=0.0 q=-0.0 size=       0kB time=00:00:00.00 bitrate=N/A speed=   0x    frame=   11 fps=0.0 q=-0.0 Lsize=      55kB time=00:00:00.67 bitrate= 674.2kbits/s speed=8.29x    
video:55kB audio:0kB subtitle:0kB other streams:0kB global headers:0kB muxing overhead: 0.035435%
